<svg width="185" height="185" viewBox="0 0 185 185" fill="none" xmlns="http://www.w3.org/2000/svg">
<path d="M173.952 71.6475H167.967C165.943 71.5033 164.002 70.7859 162.372 69.5792C160.741 68.3725 159.488 66.7263 158.758 64.8333V64.465C157.884 62.5528 157.61 60.4207 157.972 58.3495C158.333 56.2784 159.314 54.3653 160.784 52.8625L165.02 48.6266C166.921 46.6824 167.985 44.0712 167.985 41.3521C167.985 38.6329 166.921 36.0217 165.02 34.0775L150.01 19.7125C148.066 17.8114 145.455 16.747 142.736 16.747C140.017 16.747 137.405 17.8114 135.461 19.7125L131.225 23.9483C129.73 25.3997 127.834 26.3687 125.781 26.7299C123.729 27.0911 121.616 26.8278 119.715 25.9741C117.822 25.2448 116.176 23.9914 114.969 22.3607C113.762 20.73 113.045 18.7893 112.901 16.7658V10.2279C112.902 8.85405 112.626 7.49413 112.089 6.2294C111.553 4.96466 110.767 3.82107 109.778 2.86697C108.79 1.91286 107.619 1.16782 106.336 0.676364C105.053 0.18491 103.684 -0.0428688 102.311 0.00663924H81.8687C79.1579 0.00663924 76.5581 1.08352 74.6412 3.00037C72.7243 4.91723 71.6475 7.51704 71.6475 10.2279V16.2133C71.5033 18.2368 70.7859 20.1775 69.5792 21.8082C68.3725 23.4389 66.7263 24.6923 64.8333 25.4216H64.465C62.617 26.3469 60.5353 26.7009 58.4853 26.4385C56.4353 26.1761 54.5099 25.3092 52.9546 23.9483L48.7187 19.7125C46.7745 17.8114 44.1633 16.747 41.4441 16.747C38.725 16.747 36.1138 17.8114 34.1696 19.7125L19.7125 34.1696C17.8114 36.1138 16.747 38.725 16.747 41.4441C16.747 44.1633 17.8114 46.7745 19.7125 48.7187L23.9483 52.9546C25.3997 54.4497 26.3687 56.3463 26.7299 58.3985C27.0911 60.4507 26.8278 62.5641 25.9741 64.465C25.2448 66.358 23.9914 68.0041 22.3607 69.2109C20.73 70.4176 18.7893 71.135 16.7658 71.2791H10.2279C8.85405 71.2783 7.49413 71.5543 6.2294 72.0909C4.96466 72.6274 3.82107 73.4134 2.86697 74.4019C1.91286 75.3904 1.16782 76.5611 0.676364 77.844C0.18491 79.1269 -0.0428688 80.4958 0.00663924 81.8687V102.311C0.00663924 105.022 1.08352 107.622 3.00037 109.539C4.91723 111.456 7.51704 112.532 10.2279 112.532H16.2133C18.2368 112.677 20.1775 113.394 21.8082 114.601C23.4389 115.807 24.6923 117.454 25.4216 119.347C26.2957 121.259 26.57 123.391 26.2083 125.462C25.8467 127.533 24.8661 129.446 23.3958 130.949L19.16 135.185C17.2589 137.129 16.1945 139.74 16.1945 142.46C16.1945 145.179 17.2589 147.79 19.16 149.734L33.6171 164.191C35.5613 166.092 38.1725 167.157 40.8916 167.157C43.6108 167.157 46.222 166.092 48.1662 164.191L52.4021 159.955C53.9734 158.432 55.9849 157.444 58.1505 157.129C60.3162 156.815 62.5257 157.192 64.465 158.206C66.358 158.935 68.0041 160.189 69.2109 161.819C70.4176 163.45 71.135 165.391 71.2791 167.414V173.4C71.2013 174.819 71.4205 176.239 71.9226 177.569C72.4248 178.9 73.1989 180.11 74.1955 181.124C75.1921 182.138 76.3893 182.933 77.7105 183.458C79.0318 183.983 80.448 184.227 81.8687 184.173H102.311C105.022 184.173 107.622 183.096 109.539 181.18C111.456 179.263 112.532 176.663 112.532 173.952V167.967C112.677 165.943 113.394 164.002 114.601 162.372C115.807 160.741 117.454 159.488 119.347 158.758C121.259 157.884 123.391 157.61 125.462 157.972C127.533 158.333 129.446 159.314 130.949 160.784L135.185 165.02C137.129 166.921 139.74 167.985 142.46 167.985C145.179 167.985 147.79 166.921 149.734 165.02L164.191 150.563C166.092 148.619 167.157 146.007 167.157 143.288C167.157 140.569 166.092 137.958 164.191 136.014L159.955 131.778C158.432 130.207 157.444 128.195 157.129 126.029C156.815 123.864 157.192 121.654 158.206 119.715C158.935 117.822 160.189 116.176 161.819 114.969C163.45 113.762 165.391 113.045 167.414 112.901H173.4C174.819 112.979 176.239 112.76 177.569 112.257C178.9 111.755 180.11 110.981 181.124 109.984C182.138 108.988 182.933 107.791 183.458 106.469C183.983 105.148 184.227 103.732 184.173 102.311V81.8687C184.173 79.1579 183.096 76.5581 181.18 74.6412C179.263 72.7243 176.663 71.6475 173.952 71.6475ZM92.09 128.923C84.805 128.923 77.6837 126.763 71.6265 122.716C65.5693 118.668 60.8482 112.916 58.0604 106.185C55.2726 99.4551 54.5432 92.0491 55.9644 84.9042C57.3856 77.7592 60.8936 71.1961 66.0449 66.0449C71.1961 60.8936 77.7592 57.3856 84.9042 55.9644C92.0491 54.5432 99.4551 55.2726 106.185 58.0604C112.916 60.8482 118.668 65.5693 122.716 71.6265C126.763 77.6837 128.923 84.805 128.923 92.09C128.923 101.859 125.043 111.227 118.135 118.135C111.227 125.043 101.859 128.923 92.09 128.923Z" fill="url(#paint0_linear_2057_285)"/>
<defs>
<linearGradient id="paint0_linear_2057_285" x1="144.09" y1="17.59" x2="136.59" y2="166.09" gradientUnits="userSpaceOnUse">
<stop stop-color="#C6272B"/>
<stop offset="0.514484" stop-color="#701618"/>
<stop offset="1" stop-color="#380507"/>
</linearGradient>
</defs>
</svg>
